# xmcd
#
# Track frame offsets:
# 150
# 15505
# 29600
# 46642
# 63210
# 77562
# 97872
# 116612
# 133020
# 148320
# 162422
# 179372
# 195885
# 210165
# 230434
# 249132
#
# Disc length: 3538 seconds
#
#
# Revision: 0
# Processed by: cddbd v1.5.1PL2 Copyright (c) Steve Scherf et al.
# Submitted via: FreeRIP 2.931 
#
DISCID=c20dd010
DTITLE=Mattos Nascimento - Rei dos Rei
DYEAR=1995
DGENRE=Gospel
TTITLE0=Refugio e Fortaleza
TTITLE1=Tem Fogo
TTITLE2=Há Poder No Sangue deJesus
TTITLE3=Reis dos Reis
TTITLE4=Anjos Poderosos
TTITLE5=Oh Aleluia
TTITLE6=Jesus
TTITLE7=Só Deus Sabe
TTITLE8=Play
TTITLE9=Play
TTITLE10=Play
TTITLE11=Play
TTITLE12=Play
TTITLE13=Play
TTITLE14=Play
TTITLE15=Play
EXTD=
EXTT0=
EXTT1=
EXTT2=
EXTT3=
EXTT4=
EXTT5=
EXTT6=
EXTT7=
EXTT8=
EXTT9=
EXTT10=
EXTT11=
EXTT12=
EXTT13=
EXTT14=
EXTT15=
PLAYORDER=
